<?xml version="1.0" standalone="no"?>
<!DOCTYPE svg PUBLIC "-//W3C//DTD SVG 20010904//EN"
 "http://www.w3.org/TR/2001/REC-SVG-20010904/DTD/svg10.dtd">
<svg version="1.0" xmlns="http://www.w3.org/2000/svg"
 width="1035.000000pt" height="1041.000000pt" viewBox="0 0 1035.000000 1041.000000"
 preserveAspectRatio="xMidYMid meet">

<g transform="translate(0.000000,1041.000000) scale(0.100000,-0.100000)"
fill="#000000" stroke="none">
<path d="M6695 7864 c-119 -28 -158 -42 -215 -79 -70 -46 -114 -88 -109 -104
9 -25 1022 -1011 1038 -1011 11 0 22 8 26 18 5 13 -103 125 -487 504 l-493
488 29 24 c153 128 422 127 612 -1 56 -38 476 -446 523 -508 21 -28 46 -65 55
-83 20 -39 42 -50 62 -30 13 12 13 19 0 49 -32 77 -73 122 -386 425 -206 200
-257 237 -384 280 -67 23 -224 39 -271 28z"/>
<path d="M6254 7725 c-12 -19 -15 -36 -10 -69 6 -40 5 -45 -16 -51 -34 -11
-59 -35 -79 -80 -24 -51 -23 -99 1 -153 22 -48 45 -62 67 -39 14 14 14 18 -1
48 -26 52 -21 106 13 140 16 16 36 29 44 29 9 0 24 -29 39 -77 l26 -78 -124
-127 c-113 -115 -124 -129 -124 -163 0 -46 53 -105 94 -105 31 0 76 21 95 44
8 9 19 16 26 16 23 0 24 -27 3 -69 -35 -72 1 -156 77 -181 60 -20 87 -6 205
108 114 111 132 144 89 157 -18 6 -40 -12 -129 -100 -93 -92 -111 -106 -136
-103 -18 2 -34 12 -43 30 -14 24 -13 30 8 72 20 40 21 51 11 81 -23 70 -107
91 -160 40 -31 -30 -64 -30 -68 0 -2 14 31 54 112 134 l115 115 38 -27 c21
-14 77 -36 124 -50 134 -37 179 -81 212 -210 31 -118 107 -204 206 -233 126
-37 147 -46 178 -74 40 -36 62 -79 80 -155 21 -92 52 -127 82 -92 8 10 7 25
-3 58 -8 24 -22 70 -30 101 -12 42 -29 71 -67 113 -55 59 -106 88 -179 100
-110 18 -158 66 -201 197 -52 162 -119 227 -271 263 -113 26 -173 88 -198 205
-6 30 -21 71 -32 90 -13 22 -18 44 -14 62 12 58 -29 81 -60 33z"/>
<path d="M7048 7643 c7 -3 16 -2 19 1 4 3 -2 6 -13 5 -11 0 -14 -3 -6 -6z"/>
<path d="M7080 7635 c0 -3 9 -14 20 -25 22 -22 25 -19 10 11 -10 17 -30 27
-30 14z"/>
<path d="M7315 7390 c21 -24 26 -25 19 -6 -3 8 -13 17 -22 21 -13 5 -13 2 3
-15z"/>
<path d="M8290 7404 c-79 -14 -153 -42 -202 -75 -18 -13 -44 -19 -81 -19 l-54
0 -67 -71 c-36 -40 -66 -77 -66 -84 0 -6 16 -26 35 -45 19 -19 35 -38 35 -42
0 -5 -23 -39 -52 -76 -78 -102 -200 -255 -215 -272 -7 -8 -35 -44 -62 -80 -28
-36 -149 -192 -271 -348 -161 -205 -220 -287 -215 -301 7 -24 543 -545 564
-549 9 -1 57 31 106 71 50 40 263 212 475 382 212 170 403 324 424 342 22 18
45 33 51 33 6 0 26 -16 45 -35 19 -19 39 -35 45 -35 7 0 44 34 85 75 71 74 72
76 67 118 -5 35 -1 50 23 88 104 170 90 395 -35 583 -76 113 -73 102 -45 131
49 53 94 67 245 78 160 11 184 21 156 65 -7 11 -35 12 -162 2 -125 -9 -161
-15 -199 -34 -58 -30 -235 -209 -235 -239 0 -36 36 -32 75 8 18 19 39 35 46
35 28 0 116 -153 140 -245 18 -66 17 -188 -1 -249 -12 -38 -41 -98 -61 -125
-2 -2 -69 60 -150 138 -144 139 -176 159 -182 116 -2 -14 43 -66 158 -180 103
-103 160 -167 160 -180 0 -21 -67 -95 -86 -95 -15 0 -874 849 -874 864 0 19
74 86 95 86 11 0 85 -65 181 -161 90 -89 168 -159 175 -157 7 2 17 12 23 21 9
14 -13 41 -139 167 l-149 149 77 37 c141 67 291 58 446 -27 65 -36 75 -39 88
-26 23 22 2 51 -62 85 -111 60 -262 93 -355 76z m-360 -418 c0 -2 -8 -10 -17
-17 -16 -13 -17 -12 -4 4 13 16 21 21 21 13z m270 -221 c118 -118 213 -215
210 -215 -3 0 -102 97 -220 215 -118 118 -213 215 -210 215 3 0 102 -97 220
-215z m-370 92 c0 -2 -10 -12 -22 -23 l-23 -19 19 23 c18 21 26 27 26 19z
m128 -84 c29 -31 87 -107 127 -169 41 -62 91 -126 112 -144 21 -17 85 -56 143
-86 118 -62 145 -86 130 -115 -13 -24 -40 -24 -71 -1 -13 10 -66 41 -118 68
-115 60 -175 112 -231 201 -79 125 -92 142 -146 197 -30 30 -54 59 -54 65 0
13 29 41 43 41 6 0 35 -25 65 -57z m-248 -68 c-10 -13 -9 -19 6 -38 l18 -22
-24 22 c-20 18 -21 24 -10 37 7 9 15 16 17 16 3 0 0 -7 -7 -15z m256 -378
l307 -304 -40 -29 c-23 -16 -86 -66 -141 -111 -56 -46 -109 -83 -119 -83 -10
0 -132 114 -287 269 l-269 270 44 56 c24 31 51 66 59 79 31 47 122 156 130
156 5 0 147 -137 316 -303z m-195 286 c13 -16 12 -17 -3 -4 -10 7 -18 15 -18
17 0 8 8 3 21 -13z m40 -40 c13 -16 12 -17 -3 -4 -10 7 -18 15 -18 17 0 8 8 3
21 -13z m40 -40 c13 -16 12 -17 -3 -4 -10 7 -18 15 -18 17 0 8 8 3 21 -13z
m775 -221 c-17 -16 -18 -16 -5 5 7 12 15 20 18 17 3 -2 -3 -12 -13 -22z m-511
-40 c-7 -7 -45 29 -45 41 0 6 11 0 25 -13 14 -13 23 -26 20 -28z m-466 -253
c146 -144 267 -265 269 -268 1 -4 -61 -58 -138 -120 l-140 -113 -243 237
c-133 131 -242 241 -242 244 0 11 210 280 219 281 4 0 128 -118 275 -261z
m576 151 c49 -49 87 -90 85 -90 -3 0 -46 41 -95 90 -49 50 -87 90 -85 90 3 0
46 -40 95 -90z m155 -54 c0 -2 -8 -10 -17 -17 -16 -13 -17 -12 -4 4 13 16 21
21 21 13z"/>
<path d="M7716 6315 c-90 -84 -42 -241 84 -275 146 -39 241 133 137 248 -23
25 -55 29 -63 7 -3 -8 3 -31 15 -50 43 -73 16 -135 -58 -135 -55 0 -91 36 -91
90 0 30 6 45 25 62 30 26 32 53 6 68 -26 13 -24 14 -55 -15z"/>
<path d="M6005 7308 l-50 -53 50 46 c28 26 57 49 65 52 13 5 13 6 0 6 -9 1
-38 -23 -65 -51z"/>
<path d="M6050 7255 c-24 -24 -42 -46 -39 -48 2 -2 24 19 48 45 55 61 50 63
-9 3z"/>
<path d="M5932 7170 c0 -14 2 -19 5 -12 2 6 2 18 0 25 -3 6 -5 1 -5 -13z"/>
<path d="M6001 7174 c0 -11 3 -14 6 -6 3 7 2 16 -1 19 -3 4 -6 -2 -5 -13z"/>
<path d="M7233 7133 c-20 -8 -15 -44 9 -65 12 -10 28 -16 36 -13 7 3 16 5 18
5 15 0 0 52 -18 64 -24 17 -26 17 -45 9z"/>
<path d="M5940 7126 c0 -4 10 -25 22 -45 28 -47 982 -985 1006 -989 10 -2 25
5 33 15 13 16 12 17 -3 5 -9 -8 -24 -12 -33 -10 -24 5 -984 956 -1005 997 -10
20 -19 32 -20 27z"/>
<path d="M6020 7106 c0 -2 7 -9 15 -16 13 -11 14 -10 9 4 -5 14 -24 23 -24 12z"/>
<path d="M6315 6810 c137 -137 252 -250 255 -250 3 0 -108 113 -245 250 -137
138 -252 250 -255 250 -3 0 108 -112 245 -250z"/>
<path d="M6651 6911 c-31 -20 6 -65 258 -309 260 -253 301 -284 301 -229 0 18
-68 91 -267 285 -147 144 -269 262 -272 262 -3 0 -12 -4 -20 -9z"/>
<path d="M7468 6913 c6 -2 18 -2 25 0 6 3 1 5 -13 5 -14 0 -19 -2 -12 -5z"/>
<path d="M7441 6884 c0 -11 11 -31 27 -45 l27 -24 -22 25 c-11 14 -23 34 -26
45 -5 19 -5 19 -6 -1z"/>
<path d="M8441 6881 c-32 -20 17 -89 54 -75 22 9 18 37 -8 62 -26 25 -27 25
-46 13z"/>
<path d="M5255 6679 c-240 -31 -556 -146 -790 -288 -37 -23 -69 -41 -71 -41
-3 0 -10 -4 -17 -10 -7 -5 -64 -47 -127 -92 -315 -223 -608 -515 -870 -867
-127 -169 -213 -305 -330 -519 -95 -173 -118 -198 -184 -196 -68 1 -93 27
-166 169 -36 70 -78 140 -93 156 -33 34 -83 45 -131 29 -46 -15 -69 -45 -105
-138 -166 -431 -171 -442 -190 -465 -23 -28 -82 -49 -116 -43 -64 12 -88 48
-175 261 -45 110 -93 226 -107 258 -38 89 -44 117 -33 157 12 44 42 74 95 93
22 8 103 42 180 74 77 33 219 92 315 132 96 40 189 78 205 86 17 7 72 30 123
50 156 63 186 93 179 179 -4 42 -10 55 -42 84 -35 32 -41 34 -94 30 -31 -3
-76 -14 -101 -25 -25 -12 -246 -103 -490 -204 -245 -100 -485 -198 -535 -219
-49 -20 -202 -83 -340 -139 -340 -138 -346 -141 -379 -172 -34 -32 -46 -107
-24 -149 19 -36 76 -70 115 -70 19 0 105 27 190 60 163 63 205 70 253 45 36
-19 40 -27 135 -256 42 -101 98 -236 125 -299 27 -63 77 -182 111 -265 74
-174 109 -219 203 -254 71 -26 140 -27 208 -1 113 42 163 116 228 338 28 95
39 118 67 142 39 34 95 40 143 15 24 -12 110 -137 110 -158 0 -19 84 -144 107
-158 39 -26 102 -24 143 4 42 28 41 26 90 182 108 337 269 675 465 976 411
630 931 1106 1415 1294 411 160 812 117 1099 -117 93 -76 160 -162 220 -283
61 -122 90 -232 100 -373 l7 -107 8 79 c30 282 -73 577 -266 762 -109 105
-210 165 -348 209 -160 50 -344 65 -515 44z"/>
<path d="M6890 6248 c57 -60 106 -108 107 -108 8 0 -5 13 -104 110 l-108 105
105 -107z"/>
<path d="M6361 5554 c0 -11 3 -14 6 -6 3 7 2 16 -1 19 -3 4 -6 -2 -5 -13z"/>
<path d="M6549 5403 c-24 -6 -28 -33 -40 -268 -29 -559 24 -1337 132 -1935 43
-242 62 -300 96 -300 13 0 14 28 8 203 -15 433 39 999 132 1388 l25 107 87 4
c150 8 255 71 467 283 l130 130 0 -50 c-1 -27 5 -65 13 -83 11 -27 23 -35 70
-49 50 -14 79 -15 266 -5 238 13 371 5 477 -29 l68 -21 -138 -134 c-227 -217
-369 -417 -412 -578 -47 -175 1 -287 134 -317 72 -16 146 -1 245 47 59 29 96
58 175 138 109 109 165 193 212 317 25 67 28 87 28 204 1 122 -1 133 -26 185
-27 54 -101 144 -125 151 -20 6 309 258 477 366 52 34 76 63 51 63 -25 0 -391
-259 -528 -374 l-35 -30 -46 19 c-103 40 -162 47 -462 53 -304 8 -340 13 -340
50 0 54 159 218 267 275 75 39 103 67 103 102 -1 29 -30 61 -73 79 -33 13 -42
13 -78 1 -22 -8 -59 -28 -83 -45 -50 -36 -150 -154 -191 -225 -32 -57 -227
-260 -325 -340 -122 -99 -227 -145 -332 -145 -32 0 -58 1 -58 3 0 1 41 45 90
97 92 96 159 182 200 255 68 120 106 215 117 290 14 105 -90 158 -171 87 -70
-62 -182 -330 -256 -614 -17 -64 -27 -88 -41 -91 -20 -5 -27 -53 -9 -59 7 -2
2 -46 -14 -121 -76 -356 -107 -659 -115 -1097 l-6 -355 -18 120 c-28 181 -61
475 -72 640 -9 136 -23 691 -20 775 2 47 7 148 10 225 5 125 16 245 45 470 12
95 13 89 -15 119 -23 25 -53 31 -96 19z m631 -200 c-23 -72 -80 -212 -101
-250 -52 -95 -118 -188 -126 -180 -6 6 103 269 137 332 43 78 91 148 97 141 3
-2 -1 -22 -7 -43z m1424 -527 c46 -61 61 -113 60 -211 0 -139 -54 -279 -159
-415 -98 -127 -178 -188 -305 -230 -219 -73 -297 106 -163 375 43 85 93 165
105 165 4 0 8 5 8 11 0 20 129 166 246 278 l116 111 33 -26 c19 -14 45 -40 59
-58z"/>
<path d="M3890 5313 c-57 -29 -170 -134 -195 -184 -9 -16 -20 -29 -25 -29 -6
0 -10 -5 -10 -11 0 -6 -20 -44 -45 -85 -53 -87 -94 -189 -131 -324 -14 -52
-30 -103 -36 -114 -12 -22 7 -225 27 -294 22 -70 73 -138 129 -168 42 -23 56
-26 107 -20 123 12 289 136 576 430 186 189 308 332 403 472 38 55 76 106 84
113 22 18 20 41 -3 41 -12 0 -51 -39 -108 -107 -151 -184 -313 -361 -504 -548
-256 -251 -360 -325 -458 -325 -38 0 -49 5 -82 39 -38 41 -59 103 -59 176 0
27 4 35 18 35 34 0 147 69 200 121 92 92 283 404 319 519 40 131 6 257 -75
280 -55 15 -73 13 -132 -17z m60 -164 c-30 -75 -91 -189 -101 -189 -5 0 -9 -5
-9 -11 0 -6 -14 -28 -30 -49 -40 -50 -180 -190 -191 -190 -18 0 38 125 116
260 61 106 209 256 233 235 1 -1 -7 -27 -18 -56z"/>
<path d="M5260 5317 c-44 -21 -200 -168 -200 -187 0 -5 -8 -17 -19 -27 -32
-31 -137 -244 -164 -333 -14 -47 -37 -123 -51 -169 -23 -74 -25 -91 -16 -140
5 -31 14 -87 19 -124 23 -162 125 -267 247 -254 28 3 60 10 70 15 11 5 41 20
68 33 136 67 549 470 754 736 70 91 182 247 190 266 2 4 -6 7 -18 7 -23 0 -24
-1 -150 -155 -187 -227 -480 -531 -664 -688 -44 -37 -111 -83 -149 -102 -114
-57 -177 -44 -221 47 -14 29 -28 78 -32 108 l-6 55 48 13 c26 7 68 27 93 44
46 31 154 140 181 184 8 13 18 24 22 24 5 0 8 6 8 13 0 6 19 42 43 78 53 83
131 239 151 304 60 189 -52 328 -204 252z m60 -157 c-32 -81 -91 -194 -106
-203 -8 -5 -12 -12 -10 -16 3 -4 -45 -59 -106 -122 -64 -66 -112 -109 -115
-101 -6 17 95 226 145 298 50 73 176 194 203 194 5 0 0 -22 -11 -50z"/>
<path d="M3075 4033 c-33 -115 -93 -193 -148 -193 -32 0 -100 41 -149 92 -26
27 -48 46 -48 43 0 -17 97 -129 131 -152 80 -53 170 -25 244 75 30 40 85 141
85 155 0 6 -76 37 -89 37 -5 0 -17 -26 -26 -57z"/>
<path d="M8669 3553 c-1 -16 -1 -33 0 -40 2 -16 -16 -26 -24 -13 -12 20 -73
11 -104 -16 -27 -22 -31 -32 -31 -75 0 -39 5 -55 24 -74 22 -22 32 -24 100
-23 l76 2 0 133 c0 126 -1 133 -20 133 -15 0 -20 -7 -21 -27z m-28 -93 c22
-12 27 -78 7 -98 -20 -20 -65 -14 -82 10 -21 30 -20 54 4 78 22 22 42 25 71
10z"/>
<path d="M6940 3440 l0 -130 25 0 c23 0 25 3 25 50 l0 50 66 0 c56 0 65 2 60
16 -3 9 -6 18 -6 20 0 2 -27 4 -60 4 l-60 0 0 40 0 40 70 0 c63 0 70 2 70 20
0 19 -7 20 -95 20 l-95 0 0 -130z"/>
<path d="M7830 3440 l0 -130 25 0 c23 0 25 3 25 50 l0 50 60 0 c53 0 60 2 60
20 0 18 -7 20 -60 20 l-60 0 0 40 0 40 70 0 c63 0 70 2 70 20 0 19 -7 20 -95
20 l-95 0 0 -130z"/>
<path d="M7580 3525 c0 -18 -5 -25 -20 -25 -11 0 -20 -7 -20 -15 0 -8 9 -15
20 -15 18 0 20 -7 20 -70 0 -77 10 -90 69 -90 49 0 50 35 1 41 -23 4 -25 9
-28 62 -3 55 -2 57 23 57 16 0 25 6 25 15 0 9 -9 15 -25 15 -20 0 -25 5 -25
25 0 18 -5 25 -20 25 -15 0 -20 -7 -20 -25z"/>
<path d="M7190 3503 c-8 -2 -21 -6 -28 -9 -10 -3 -10 -9 -2 -24 9 -16 15 -18
30 -10 40 21 90 6 90 -27 0 -9 -15 -13 -46 -13 -60 0 -84 -14 -84 -49 0 -46
26 -60 109 -59 l73 0 -4 80 c-3 69 -6 82 -27 99 -22 18 -76 24 -111 12z m90
-128 c0 -8 -10 -19 -21 -26 -28 -14 -71 3 -63 26 8 21 84 21 84 0z"/>
<path d="M7392 3494 c-17 -12 -22 -24 -20 -47 3 -32 20 -46 82 -64 47 -13 31
-28 -29 -27 -37 1 -56 -3 -59 -12 -7 -19 25 -34 76 -34 56 0 88 22 88 60 0 34
-6 39 -69 55 -66 16 -62 40 7 39 44 -2 52 1 52 16 0 32 -89 41 -128 14z"/>
<path d="M8072 3485 c-28 -23 -32 -33 -32 -75 0 -42 4 -52 31 -74 69 -58 169
-15 169 73 0 57 -32 91 -91 98 -38 4 -50 1 -77 -22z m99 -25 c22 -12 27 -78 7
-98 -20 -20 -65 -14 -82 10 -21 30 -20 54 4 78 22 22 42 25 71 10z"/>
<path d="M8325 3498 c-93 -51 -61 -188 45 -188 52 0 76 13 95 50 24 46 19 78
-19 116 -36 36 -81 44 -121 22z m87 -45 c37 -33 11 -103 -38 -103 -49 0 -72
64 -37 102 20 22 51 23 75 1z"/>
</g>
</svg>
